<?xml version="1.0" encoding="UTF-8" standalone="no"?>
<!-- Created with Inkscape (http://www.inkscape.org/) -->

<svg
   width="65.984451mm"
   height="65.998871mm"
   viewBox="0 0 65.984451 65.998871"
   version="1.1"
   id="svg1"
   inkscape:version="1.3.2 (091e20ef0f, 2023-11-25, custom)"
   sodipodi:docname="logo.svg"
   xml:space="preserve"
   inkscape:export-filename="logo.png"
   inkscape:export-xdpi="96"
   inkscape:export-ydpi="96"
   xmlns:inkscape="http://www.inkscape.org/namespaces/inkscape"
   xmlns:sodipodi="http://sodipodi.sourceforge.net/DTD/sodipodi-0.dtd"
   xmlns="http://www.w3.org/2000/svg"
   xmlns:svg="http://www.w3.org/2000/svg"><sodipodi:namedview
     id="namedview1"
     pagecolor="#ffffff"
     bordercolor="#000000"
     borderopacity="0.25"
     inkscape:showpageshadow="2"
     inkscape:pageopacity="0.0"
     inkscape:pagecheckerboard="0"
     inkscape:deskcolor="#d1d1d1"
     inkscape:document-units="mm"
     inkscape:zoom="1.0129245"
     inkscape:cx="-193.49912"
     inkscape:cy="152.03502"
     inkscape:window-width="1920"
     inkscape:window-height="1008"
     inkscape:window-x="0"
     inkscape:window-y="0"
     inkscape:window-maximized="1"
     inkscape:current-layer="layer1" /><defs
     id="defs1" /><g
     inkscape:label="Layer 1"
     inkscape:groupmode="layer"
     id="layer1"
     transform="translate(-56.950794,-59.510298)"><g
       id="g11"
       transform="matrix(0.83171967,0,0,0.58830312,9.540174,30.663112)"><path
         style="fill:none;stroke:#000000;stroke-width:1;stroke-linecap:round;stroke-linejoin:round;stroke-dasharray:none"
         d="M 120.5957,49.674867 57.442973,105.32573 116.6653,125.27138 Z"
         id="path1" /><path
         id="path11"
         style="fill:none;stroke:#000000;stroke-width:1;stroke-linecap:round;stroke-linejoin:round;stroke-dasharray:none"
         d="m 57.77588,92.247016 c 1.593166,2.128727 6.872155,8.804284 13.313977,12.915504 7.743959,4.94223 13.305245,3.19374 22.773446,-2.17086 9.468197,-5.364617 15.161467,-4.107361 20.727707,-1.24001 4.10749,2.11591 8.96431,7.43406 11.22786,10.0762" /><path
         id="path10"
         style="fill:none;stroke:#000000;stroke-width:1;stroke-linecap:round;stroke-linejoin:round;stroke-dasharray:none"
         d="m 70.337406,77.401711 c 2.513104,2.919642 6.312902,6.834206 10.63653,9.593557 7.743954,4.94222 13.305248,3.19375 22.773434,-2.17085 9.4682,-5.3646 15.16147,-4.107344 20.72771,-1.24 2.41612,1.24462 5.09152,3.597241 7.34587,5.86146" /><path
         id="path9"
         style="fill:none;stroke:#000000;stroke-width:1;stroke-linecap:round;stroke-linejoin:round;stroke-dasharray:none"
         d="m 79.085697,66.829359 c 1.465837,1.282184 3.052877,2.515846 4.717564,3.578254 7.743954,4.94222 13.305252,3.19375 22.773429,-2.17085 9.4682,-5.3646 15.16147,-4.107344 20.72771,-1.24 2.88531,1.486313 6.14037,4.552739 8.60658,7.161772" /><path
         style="fill:#a51d21;fill-opacity:1;stroke:none;stroke-width:1.86565;stroke-linecap:round;stroke-linejoin:round;stroke-dasharray:none"
         d="m 361.82361,273.0576 c 0.67872,-0.68741 21.55886,-19.153 46.4003,-41.03466 36.91026,-32.51253 45.19609,-39.59419 45.32952,-38.74185 0.15542,0.99286 -1.55732,36.26313 -2.17052,44.6971 l -0.29098,4.00221 -6.00838,0.27075 c -14.0876,0.63483 -26.56971,4.88512 -45.96939,15.65307 -13.92064,7.72676 -26.12607,13.22535 -33.48659,15.08584 -1.68494,0.42589 -3.50779,0.89653 -4.05077,1.04585 -0.8735,0.24023 -0.84506,0.12752 0.24681,-0.97831 z"
         id="path5"
         transform="scale(0.26458333)" /><path
         style="fill:#c17336;fill-opacity:1;stroke:none;stroke-width:3.7313;stroke-linecap:round;stroke-linejoin:round;stroke-dasharray:none"
         d="m 327.05497,336.61232 c -5.15843,-1.38946 -16.11912,-6.60102 -21.30129,-10.1283 l -2.75894,-1.87789 25.67995,-22.60855 c 14.12398,-12.4347 26.69408,-22.90284 27.93358,-23.26253 1.23949,-0.35969 5.80768,-1.58186 10.15154,-2.71594 5.19816,-1.35712 15.65974,-5.94602 30.60445,-13.42443 12.48859,-6.24936 25.37208,-12.26111 28.62997,-13.35943 6.03994,-2.03623 23.69142,-4.73106 24.65797,-3.76451 0.29321,0.2932 -0.13187,12.70948 -0.94461,27.59172 -0.81275,14.88224 -1.48284,28.23357 -1.48909,29.66962 l -0.0114,2.611 -10.61283,0.005 c -16.86344,0.008 -25.98745,2.99919 -52.77473,17.30213 -26.54627,14.17425 -42.58489,18.0509 -57.76461,13.96214 z"
         id="path6"
         transform="scale(0.26458333)" /><path
         style="fill:#507d3e;fill-opacity:1;stroke:none;stroke-width:3.7313;stroke-linecap:round;stroke-linejoin:round;stroke-dasharray:none"
         d="m 296.66574,406.54801 c -13.77379,-1.82685 -30.52015,-11.08098 -47.26496,-26.11889 l -4.81362,-4.32294 27.7486,-24.45286 27.7486,-24.45286 7.66948,4.50214 c 10.73854,6.30375 21.00846,9.39268 31.16739,9.37437 14.63703,-0.0264 26.10036,-3.96717 52.02597,-17.88508 19.59549,-10.51966 29.88661,-13.89139 43.9322,-14.39372 5.9728,-0.21362 11.31938,-0.0321 11.88128,0.40346 1.19164,0.92361 -2.51492,78.30885 -3.7521,78.33613 -0.4158,0.009 -5.30264,-2.22646 -10.85964,-4.96806 -13.95055,-6.88262 -24.14617,-9.31014 -36.29175,-8.64088 -12.86719,0.70902 -23.69498,4.49651 -45.90592,16.05755 -20.53624,10.68935 -28.5825,13.96001 -38.97054,15.84082 -7.48632,1.35543 -8.96773,1.43003 -14.31499,0.72082 z"
         id="path7"
         transform="scale(0.26458333)" /><path
         style="fill:#2e3f72;fill-opacity:1;stroke:none;stroke-width:3.7313;stroke-linecap:round;stroke-linejoin:round;stroke-dasharray:none"
         d="M 375.15135,449.54303 C 340.129,437.71146 291.15287,421.24212 266.31551,412.94449 c -24.83737,-8.29764 -45.16218,-15.33954 -45.16625,-15.64867 -0.004,-0.30914 4.66377,-4.66402 10.37299,-9.67753 l 10.38041,-9.11545 9.96932,8.31433 c 34.75518,28.98553 55.15497,30.24056 99.5856,6.12671 20.39662,-11.06986 30.44542,-14.69578 43.97489,-15.8675 12.48783,-1.08152 28.85628,3.62703 41.96286,12.07103 5.01799,3.23287 5.85737,4.19911 5.85157,6.73599 -0.0122,5.31747 -3.84271,74.7861 -4.13453,74.98145 -0.1562,0.10456 -28.93866,-9.49026 -63.96102,-21.32182 z"
         id="path8"
         transform="scale(0.26458333)" /></g></g></svg>
